<svg xmlns="http://www.w3.org/2000/svg" viewBox="0 0 526 932" width="526" height="932" preserveAspectRatio="xMidYMid meet" style="max-width:100%;height:auto;background:#f7f4ee;font-family:-apple-system,sans-serif;">
<g stroke="#e3ddd1" stroke-width="0.5">
<line x1="74.0" y1="60.0" x2="74.0" y2="872.0"/>
<line x1="102.0" y1="60.0" x2="102.0" y2="872.0"/>
<line x1="130.0" y1="60.0" x2="130.0" y2="872.0"/>
<line x1="158.0" y1="60.0" x2="158.0" y2="872.0"/>
<line x1="186.0" y1="60.0" x2="186.0" y2="872.0"/>
<line x1="214.0" y1="60.0" x2="214.0" y2="872.0"/>
<line x1="242.0" y1="60.0" x2="242.0" y2="872.0"/>
<line x1="270.0" y1="60.0" x2="270.0" y2="872.0"/>
<line x1="298.0" y1="60.0" x2="298.0" y2="872.0"/>
<line x1="326.0" y1="60.0" x2="326.0" y2="872.0"/>
<line x1="354.0" y1="60.0" x2="354.0" y2="872.0"/>
<line x1="382.0" y1="60.0" x2="382.0" y2="872.0"/>
<line x1="410.0" y1="60.0" x2="410.0" y2="872.0"/>
<line x1="438.0" y1="60.0" x2="438.0" y2="872.0"/>
<line x1="466.0" y1="60.0" x2="466.0" y2="872.0"/>
<line x1="60.0" y1="858.0" x2="466.0" y2="858.0"/>
<line x1="60.0" y1="830.0" x2="466.0" y2="830.0"/>
<line x1="60.0" y1="802.0" x2="466.0" y2="802.0"/>
<line x1="60.0" y1="774.0" x2="466.0" y2="774.0"/>
<line x1="60.0" y1="746.0" x2="466.0" y2="746.0"/>
<line x1="60.0" y1="718.0" x2="466.0" y2="718.0"/>
<line x1="60.0" y1="690.0" x2="466.0" y2="690.0"/>
<line x1="60.0" y1="662.0" x2="466.0" y2="662.0"/>
<line x1="60.0" y1="634.0" x2="466.0" y2="634.0"/>
<line x1="60.0" y1="606.0" x2="466.0" y2="606.0"/>
<line x1="60.0" y1="578.0" x2="466.0" y2="578.0"/>
<line x1="60.0" y1="550.0" x2="466.0" y2="550.0"/>
<line x1="60.0" y1="522.0" x2="466.0" y2="522.0"/>
<line x1="60.0" y1="494.0" x2="466.0" y2="494.0"/>
<line x1="60.0" y1="466.0" x2="466.0" y2="466.0"/>
<line x1="60.0" y1="438.0" x2="466.0" y2="438.0"/>
<line x1="60.0" y1="410.0" x2="466.0" y2="410.0"/>
<line x1="60.0" y1="382.0" x2="466.0" y2="382.0"/>
<line x1="60.0" y1="354.0" x2="466.0" y2="354.0"/>
<line x1="60.0" y1="326.0" x2="466.0" y2="326.0"/>
<line x1="60.0" y1="298.0" x2="466.0" y2="298.0"/>
<line x1="60.0" y1="270.0" x2="466.0" y2="270.0"/>
<line x1="60.0" y1="242.0" x2="466.0" y2="242.0"/>
<line x1="60.0" y1="214.0" x2="466.0" y2="214.0"/>
<line x1="60.0" y1="186.0" x2="466.0" y2="186.0"/>
<line x1="60.0" y1="158.0" x2="466.0" y2="158.0"/>
<line x1="60.0" y1="130.0" x2="466.0" y2="130.0"/>
<line x1="60.0" y1="102.0" x2="466.0" y2="102.0"/>
<line x1="60.0" y1="74.0" x2="466.0" y2="74.0"/>
</g>
<rect x="-70.6" y="77.7" width="172.6" height="777.3" fill="#cfdcc0" stroke="#2a2a2c" stroke-width="1.2" opacity="0.55"/>
<rect x="157.9" y="77.7" width="259.8" height="364.0" fill="#b8c9a5" stroke="#2a2a2c" stroke-width="1.2" opacity="0.7"/><text x="287.8" y="259.7" fill="#3a4a30" font-size="11" font-weight="600" text-anchor="middle" dominant-baseline="middle">Espace zen 9,28×13,00</text>
<rect x="102.0" y="787.4" width="315.8" height="70.6" fill="#caa279" stroke="#2a2a2c" stroke-width="1.2" opacity="0.85"/><text x="259.9" y="822.7" fill="#3a2a18" font-size="11" font-weight="600" text-anchor="middle" dominant-baseline="middle">Terrasse Hintsy 11,28×2,52</text>
<rect x="399.6" y="600.7" width="28.0" height="186.8" fill="#caa279" stroke="#2a2a2c" stroke-width="1.2" opacity="0.85"/>
<rect x="158.0" y="301.6" width="33.6" height="140.0" fill="#e8e0c8" stroke="#8a7d5a" stroke-width="0.8" opacity="0.95"/><text x="174.8" y="371.6" fill="#5a4d2a" font-size="11" font-weight="600" text-anchor="middle" dominant-baseline="middle">Karesansui</text>
<rect x="102.0" y="185.4" width="56.0" height="106.4" fill="#f0eee8" stroke="#5a5a5a" stroke-width="1.2" opacity="1.0"/><text x="130.0" y="238.6" fill="#1a1a1c" font-size="11" font-weight="600" text-anchor="middle" dominant-baseline="middle">Vestiaire 2,0×3,8</text>
<rect x="102.0" y="77.6" width="56.0" height="106.4" fill="#f0eee8" stroke="#5a5a5a" stroke-width="1.2" opacity="1.0"/><text x="130.0" y="130.8" fill="#1a1a1c" font-size="11" font-weight="600" text-anchor="middle" dominant-baseline="middle">Stockage 2,0×3,9</text>
<rect x="102.0" y="553.6" width="197.1" height="220.4" fill="#4a6478" stroke="#2a3a48" stroke-width="1.5" opacity="1.0"/><text x="200.6" y="663.8" fill="#f0f4f8" font-size="11" font-weight="600" text-anchor="middle" dominant-baseline="middle"><tspan x="200.6" dy="0">Grand Bassin</tspan><tspan x="200.6" dy="1.2em">7,04×7,87 / −1,80</tspan></text>
<rect x="102.0" y="441.6" width="203.8" height="112.0" fill="#5e7a90" stroke="#2a3a48" stroke-width="1.5" opacity="1.0"/><text x="203.9" y="497.6" fill="#f0f4f8" font-size="11" font-weight="600" text-anchor="middle" dominant-baseline="middle">Moyen Bassin 7,28×4 / −1,40</text>
<rect x="102.0" y="301.6" width="56.0" height="140.0" fill="#5e7a90" stroke="#2a3a48" stroke-width="1.5" opacity="1.0"/><text x="130.0" y="371.6" fill="#f0f4f8" font-size="11" font-weight="600" text-anchor="middle" dominant-baseline="middle"><tspan x="130.0" dy="0">Couloir</tspan><tspan x="130.0" dy="1.2em">2×5</tspan><tspan x="130.0" dy="1.2em">−1,40</tspan></text>
<rect x="299.1" y="553.6" width="90.7" height="220.4" fill="#9bbcd0" stroke="#2a3a48" stroke-width="1.5" opacity="1.0"/><text x="344.5" y="663.8" fill="#1a3040" font-size="11" font-weight="600" text-anchor="middle" dominant-baseline="middle">Plage 3,24×7,87 / −0,60</text>
<rect x="305.8" y="441.6" width="121.8" height="112.0" fill="#3a3d40" stroke="#1a1a1c" stroke-width="1.5" opacity="1.0"/><text x="366.7" y="497.6" fill="#e8e8e8" font-size="11" font-weight="600" text-anchor="middle" dominant-baseline="middle"><tspan x="366.7" dy="0">Sunken Lounge B (sec)</tspan><tspan x="366.7" dy="1.2em">4,35×4,00 / −1,05</tspan></text>
<rect x="92.2" y="301.6" width="9.8" height="476.0" fill="#1a1a1c"/>
<text x="96.4" y="550.0" fill="#1a1a1c" font-size="10" font-weight="600" text-anchor="end" transform="rotate(-90 96.4,550.0)">Lame d'eau granit · 17 m (12 m débordement)</text>
<rect x="293.2" y="464.0" width="15.7" height="67.2" fill="#1a1a1c" stroke="#000" stroke-width="1.2" opacity="1.0"/>
<text x="301.1" y="497.6" fill="#f0c060" font-size="8" text-anchor="middle" dominant-baseline="middle">Bar</text>
<circle cx="284.0" cy="517.2" r="5.3" fill="#caa279" stroke="#5a4220" stroke-width="0.8"/>
<circle cx="284.0" cy="497.6" r="5.3" fill="#caa279" stroke="#5a4220" stroke-width="0.8"/>
<circle cx="284.0" cy="478.0" r="5.3" fill="#caa279" stroke="#5a4220" stroke-width="0.8"/>
<rect x="237.5" y="550.6" width="61.6" height="61.6" fill="#c8c4be" stroke="#7a7770" stroke-width="1.2" opacity="1.0"/>
<rect x="247.3" y="560.4" width="42.0" height="42.0" fill="#e8d099" stroke="#a08850" stroke-width="1.2" opacity="1.0"/>
<circle cx="268.3" cy="581.4" r="28.0" fill="#6a8a78" opacity="0.55"/>
<text x="268.3" y="581.4" fill="#1a3024" font-size="9" font-weight="600" text-anchor="middle" dominant-baseline="middle">Satrana</text>
<text x="268.3" y="620.6" fill="#3a3a3a" font-size="9" text-anchor="middle">Îlot D 2,20×2,20</text>
<circle cx="466.0" cy="60" r="22" fill="#fff" stroke="#1a1a1c" stroke-width="1.2"/>
<polygon points="466.0,44 460.0,64 466.0,58 472.0,64" fill="#c33"/>
<polygon points="466.0,76 460.0,56 466.0,62 472.0,56" fill="#1a1a1c"/>
<text x="466.0" y="38" font-size="11" font-weight="700" text-anchor="middle" fill="#c33">N</text>
<line x1="30" y1="902.0" x2="170" y2="902.0" stroke="#1a1a1c" stroke-width="2"/>
<line x1="30" y1="898.0" x2="30" y2="906.0" stroke="#1a1a1c" stroke-width="2"/>
<line x1="58" y1="898.0" x2="58" y2="906.0" stroke="#1a1a1c" stroke-width="2"/>
<line x1="86" y1="898.0" x2="86" y2="906.0" stroke="#1a1a1c" stroke-width="2"/>
<line x1="114" y1="898.0" x2="114" y2="906.0" stroke="#1a1a1c" stroke-width="2"/>
<line x1="142" y1="898.0" x2="142" y2="906.0" stroke="#1a1a1c" stroke-width="2"/>
<line x1="170" y1="898.0" x2="170" y2="906.0" stroke="#1a1a1c" stroke-width="2"/>
<text x="30" y="920.0" font-size="10" fill="#1a1a1c">0</text>
<text x="170" y="920.0" font-size="10" fill="#1a1a1c" text-anchor="end">5 m</text>
<text x="20" y="32" font-size="16" font-weight="700" fill="#1a1a1c">Chan Ming POOL — Plan v29 (généré depuis le modèle 3D)</text>
<text x="20" y="50" font-size="11" fill="#5a5a5a">Surface eau 120.0 m² · 4 bassins + lounge sec · origine = angle SO du Grand Bassin · 1 carreau = 1 m</text>
</svg>